<svg width="302" height="228" viewBox="0 0 302 228" fill="none" xmlns="http://www.w3.org/2000/svg">
<path d="M194.5 196.5L169 171L224 167L194.5 196.5Z" fill="#67DE93"/>
<path d="M64.5347 132.047L94.3661 111.784L87.9761 166.558L64.5347 132.047Z" fill="#67DE93"/>
<path d="M182.8 83.5207L213.216 102.895L160.387 118.708L182.8 83.5207Z" fill="#67DE93"/>
<path d="M98.0491 49.3524L125.222 69.4461L79.3866 83.7075L98.0491 49.3524Z" fill="#D83B57"/>
<path d="M127.339 219.702L91.0353 203.03L154.066 182L127.339 219.702Z" fill="#D83B57"/>
<path d="M206.339 54.7023L170.035 38.0301L233.066 17L206.339 54.7023Z" fill="#D83B57"/>
<path d="M149.339 37.7023L113.035 21.0301L176.066 9.95657e-06L149.339 37.7023Z" fill="#FF626E"/>
<path d="M278.248 136.452L238.747 142.413L279.93 90.2679L278.248 136.452Z" fill="#FF626E"/>
<path d="M30.078 119.128L3.99928 149.39L1.25805 83L30.078 119.128Z" fill="#FF626E"/>
</svg>
